<svg viewBox="0 0 1100 780" xmlns="http://www.w3.org/2000/svg" style="background:#0a0f1a;font-family:monospace">

  <!-- ══════════════════════════════════════════════════════════════════ -->
  <!-- TITLE -->
  <text x="550" y="32" fill="#00d4ff" font-size="18" font-weight="bold" text-anchor="middle">X-NEU IHA — TAM SİSTEM BAĞLANTI ŞEMASI</text>
  <text x="550" y="50" fill="#6b7280" font-size="11" text-anchor="middle">Arduino Mega 2560 · Pixhawk 4 · SiK Radio · RC Receiver</text>
  <line x1="40" y1="58" x2="1060" y2="58" stroke="#1a2030" stroke-width="1"/>

  <!-- ══════════════════════════════════════════════════════════════════ -->
  <!-- DRONE SIDE BACKGROUND -->
  <rect x="30" y="68" width="680" height="680" rx="8" fill="none" stroke="#1a2030" stroke-width="1.5" stroke-dasharray="6,3"/>
  <text x="46" y="86" fill="#1a2030" font-size="10">DRONE TARAF</text>

  <!-- GND SIDE BACKGROUND -->
  <rect x="730" y="68" width="340" height="420" rx="8" fill="none" stroke="#1a2030" stroke-width="1.5" stroke-dasharray="6,3"/>
  <text x="746" y="86" fill="#1a2030" font-size="10">YER İSTASYONU</text>

  <!-- ══════════════════════════════════════════════════════════════════ -->
  <!-- PIXHAWK 4 -->
  <rect x="260" y="100" width="200" height="320" rx="6" fill="#0d1520" stroke="#00d4ff" stroke-width="1.5"/>
  <text x="360" y="120" fill="#00d4ff" font-size="13" font-weight="bold" text-anchor="middle">PIXHAWK 4</text>
  <text x="360" y="134" fill="#6b7280" font-size="9" text-anchor="middle">ArduPilot / PX4</text>

  <!-- Pixhawk ports - left side -->
  <rect x="250" y="148" width="12" height="16" rx="2" fill="#ff4d00"/>
  <text x="248" y="160" fill="#ff4d00" font-size="8" text-anchor="end">POWER</text>

  <rect x="250" y="174" width="12" height="16" rx="2" fill="#00d4ff"/>
  <text x="248" y="186" fill="#00d4ff" font-size="8" text-anchor="end">TELEM1</text>

  <rect x="250" y="200" width="12" height="16" rx="2" fill="#00ff88"/>
  <text x="248" y="212" fill="#00ff88" font-size="8" text-anchor="end">TELEM2</text>

  <rect x="250" y="226" width="12" height="16" rx="2" fill="#c084fc"/>
  <text x="248" y="238" fill="#c084fc" font-size="8" text-anchor="end">GPS1</text>

  <rect x="250" y="252" width="12" height="16" rx="2" fill="#fbbf24"/>
  <text x="248" y="264" fill="#fbbf24" font-size="8" text-anchor="end">RC IN</text>

  <!-- Pixhawk ports - right side -->
  <rect x="458" y="148" width="12" height="16" rx="2" fill="#6b7280"/>
  <text x="474" y="160" fill="#6b7280" font-size="8">SAFETY SW</text>

  <rect x="458" y="174" width="12" height="14" rx="2" fill="#6b7280"/>
  <text x="474" y="185" fill="#6b7280" font-size="8">BUZZER</text>

  <!-- MAIN OUT labels -->
  <text x="360" y="290" fill="#6b7280" font-size="9" text-anchor="middle">MAIN OUT</text>
  <rect x="288" y="298" width="18" height="12" rx="2" fill="#1a2030" stroke="#6b7280" stroke-width="0.8"/>
  <text x="297" y="308" fill="#6b7280" font-size="8" text-anchor="middle">M1</text>
  <rect x="314" y="298" width="18" height="12" rx="2" fill="#1a2030" stroke="#6b7280" stroke-width="0.8"/>
  <text x="323" y="308" fill="#6b7280" font-size="8" text-anchor="middle">M2</text>
  <rect x="340" y="298" width="18" height="12" rx="2" fill="#1a2030" stroke="#6b7280" stroke-width="0.8"/>
  <text x="349" y="308" fill="#6b7280" font-size="8" text-anchor="middle">M3</text>
  <rect x="366" y="298" width="18" height="12" rx="2" fill="#1a2030" stroke="#6b7280" stroke-width="0.8"/>
  <text x="375" y="308" fill="#6b7280" font-size="8" text-anchor="middle">M4</text>

  <!-- AUX OUT -->
  <text x="360" y="340" fill="#6b7280" font-size="9" text-anchor="middle">AUX OUT</text>
  <rect x="314" y="348" width="18" height="12" rx="2" fill="#1a2030" stroke="#6b7280" stroke-width="0.8"/>
  <text x="323" y="358" fill="#6b7280" font-size="8" text-anchor="middle">A1</text>
  <rect x="340" y="348" width="18" height="12" rx="2" fill="#1a2030" stroke="#6b7280" stroke-width="0.8"/>
  <text x="349" y="358" fill="#6b7280" font-size="8" text-anchor="middle">A2</text>
  <rect x="366" y="348" width="18" height="12" rx="2" fill="#1a2030" stroke="#6b7280" stroke-width="0.8"/>
  <text x="375" y="358" fill="#6b7280" font-size="8" text-anchor="middle">A3</text>

  <!-- ══════════════════════════════════════════════════════════════════ -->
  <!-- GPS MODULE -->
  <rect x="260" y="460" width="120" height="60" rx="5" fill="#0d1520" stroke="#c084fc" stroke-width="1.5"/>
  <text x="320" y="485" fill="#c084fc" font-size="11" font-weight="bold" text-anchor="middle">GPS+MAG</text>
  <text x="320" y="498" fill="#6b7280" font-size="8" text-anchor="middle">NEO-M8N / M9N</text>
  <text x="320" y="510" fill="#6b7280" font-size="8" text-anchor="middle">I2C + UART</text>

  <!-- GPS → Pixhawk wire -->
  <line x1="320" y1="460" x2="300" y2="242" stroke="#c084fc" stroke-width="1.2" stroke-dasharray="4,2"/>
  <circle cx="262" cy="234" r="3" fill="#c084fc"/>

  <!-- ══════════════════════════════════════════════════════════════════ -->
  <!-- RC RECEIVER -->
  <rect x="420" y="460" width="130" height="65" rx="5" fill="#0d1520" stroke="#fbbf24" stroke-width="1.5"/>
  <text x="485" y="482" fill="#fbbf24" font-size="11" font-weight="bold" text-anchor="middle">RC RECEIVER</text>
  <text x="485" y="495" fill="#6b7280" font-size="8" text-anchor="middle">FrSky R-XSR / D16</text>
  <text x="485" y="507" fill="#6b7280" font-size="8" text-anchor="middle">2.4 GHz SBUS</text>
  <text x="485" y="518" fill="#fbbf24" font-size="8" text-anchor="middle">SBUS → RC IN</text>

  <!-- RC Receiver → Pixhawk -->
  <line x1="470" y1="460" x2="455" y2="268" stroke="#fbbf24" stroke-width="1.2" stroke-dasharray="4,2"/>
  <circle cx="262" cy="260" r="3" fill="#fbbf24"/>

  <!-- ══════════════════════════════════════════════════════════════════ -->
  <!-- ARDUINO MEGA 2560 -->
  <rect x="44" y="100" width="180" height="380" rx="6" fill="#0d1520" stroke="#00ff88" stroke-width="1.5"/>
  <text x="134" y="120" fill="#00ff88" font-size="13" font-weight="bold" text-anchor="middle">ARDUINO</text>
  <text x="134" y="134" fill="#00ff88" font-size="11" font-weight="bold" text-anchor="middle">MEGA 2560</text>

  <!-- Arduino Serial ports -->
  <rect x="222" y="148" width="12" height="12" rx="2" fill="#00ff88"/>
  <text x="220" y="158" fill="#00ff88" font-size="7.5" text-anchor="end">TX1/RX1</text>
  <text x="220" y="167" fill="#6b7280" font-size="6.5" text-anchor="end">TELEM2</text>

  <rect x="222" y="180" width="12" height="12" rx="2" fill="#00d4ff"/>
  <text x="220" y="190" fill="#00d4ff" font-size="7.5" text-anchor="end">TX2/RX2</text>
  <text x="220" y="199" fill="#6b7280" font-size="6.5" text-anchor="end">SiK Radio</text>

  <!-- Arduino I/O pins right side -->
  <rect x="222" y="212" width="12" height="10" rx="2" fill="#22c55e"/>
  <text x="220" y="221" fill="#22c55e" font-size="7.5" text-anchor="end">D4</text>
  <text x="220" y="230" fill="#6b7280" font-size="6.5" text-anchor="end">GPS LED</text>

  <rect x="222" y="242" width="12" height="10" rx="2" fill="#eab308"/>
  <text x="220" y="251" fill="#eab308" font-size="7.5" text-anchor="end">D5</text>
  <text x="220" y="260" fill="#6b7280" font-size="6.5" text-anchor="end">BAT LED</text>

  <rect x="222" y="272" width="12" height="10" rx="2" fill="#ef4444"/>
  <text x="220" y="281" fill="#ef4444" font-size="7.5" text-anchor="end">D6</text>
  <text x="220" y="290" fill="#6b7280" font-size="6.5" text-anchor="end">ARM LED</text>

  <rect x="222" y="302" width="12" height="10" rx="2" fill="#f97316"/>
  <text x="220" y="311" fill="#f97316" font-size="7.5" text-anchor="end">D7</text>
  <text x="220" y="320" fill="#6b7280" font-size="6.5" text-anchor="end">BUZZER</text>

  <rect x="222" y="332" width="12" height="10" rx="2" fill="#a78bfa"/>
  <text x="220" y="341" fill="#a78bfa" font-size="7.5" text-anchor="end">D8</text>
  <text x="220" y="350" fill="#6b7280" font-size="6.5" text-anchor="end">PAYLOAD</text>

  <rect x="222" y="362" width="12" height="10" rx="2" fill="#ec4899"/>
  <text x="220" y="371" fill="#ec4899" font-size="7.5" text-anchor="end">D9</text>
  <text x="220" y="380" fill="#6b7280" font-size="6.5" text-anchor="end">CAM TRIG</text>

  <!-- USB label -->
  <rect x="44" y="448" width="60" height="22" rx="3" fill="#00ff88" fill-opacity="0.1" stroke="#00ff88" stroke-width="1"/>
  <text x="74" y="463" fill="#00ff88" font-size="9" font-weight="bold" text-anchor="middle">USB</text>

  <!-- ══════════════════════════════════════════════════════════════════ -->
  <!-- WIRE: Arduino TX1/RX1 → Pixhawk TELEM2 -->
  <line x1="234" y1="154" x2="250" y2="208" stroke="#00ff88" stroke-width="1.5"/>
  <text x="242" y="190" fill="#00ff88" font-size="7.5" transform="rotate(-50,242,190)">57600</text>

  <!-- ══════════════════════════════════════════════════════════════════ -->
  <!-- STATUS LEDS -->
  <!-- Green GPS LED -->
  <rect x="44" y="540" width="44" height="44" rx="22" fill="#14532d" stroke="#22c55e" stroke-width="2"/>
  <circle cx="66" cy="562" r="10" fill="#22c55e" fill-opacity="0.7"/>
  <text x="66" y="597" fill="#22c55e" font-size="8" text-anchor="middle">GPS</text>

  <!-- Wire D4 → LED (with resistor symbol) -->
  <line x1="66" y1="584" x2="66" y2="222" stroke="#22c55e" stroke-width="1"/>
  <rect x="60" y="500" width="12" height="6" rx="1" fill="none" stroke="#22c55e" stroke-width="1"/>
  <text x="78" y="506" fill="#6b7280" font-size="7">220Ω</text>
  <line x1="234" y1="217" x2="72" y2="503" stroke="#22c55e" stroke-width="1" stroke-dasharray="3,2"/>

  <!-- Yellow BAT LED -->
  <rect x="100" y="540" width="44" height="44" rx="22" fill="#713f12" stroke="#eab308" stroke-width="2"/>
  <circle cx="122" cy="562" r="10" fill="#eab308" fill-opacity="0.7"/>
  <text x="122" y="597" fill="#eab308" font-size="8" text-anchor="middle">BAT</text>
  <line x1="234" y1="247" x2="122" y2="540" stroke="#eab308" stroke-width="1" stroke-dasharray="3,2"/>

  <!-- Red ARM LED -->
  <rect x="156" y="540" width="44" height="44" rx="22" fill="#450a0a" stroke="#ef4444" stroke-width="2"/>
  <circle cx="178" cy="562" r="10" fill="#ef4444" fill-opacity="0.7"/>
  <text x="178" y="597" fill="#ef4444" font-size="8" text-anchor="middle">ARM</text>
  <line x1="234" y1="277" x2="178" y2="540" stroke="#ef4444" stroke-width="1" stroke-dasharray="3,2"/>

  <!-- Buzzer -->
  <rect x="44" y="612" width="44" height="40" rx="4" fill="#0d1520" stroke="#f97316" stroke-width="2"/>
  <text x="66" y="636" fill="#f97316" font-size="8" font-weight="bold" text-anchor="middle">BUZZ</text>
  <line x1="234" y1="307" x2="66" y2="612" stroke="#f97316" stroke-width="1" stroke-dasharray="3,2"/>

  <!-- Payload Servo -->
  <rect x="100" y="612" width="70" height="40" rx="4" fill="#0d1520" stroke="#a78bfa" stroke-width="2"/>
  <text x="135" y="630" fill="#a78bfa" font-size="8" font-weight="bold" text-anchor="middle">PAYLOAD</text>
  <text x="135" y="643" fill="#6b7280" font-size="7" text-anchor="middle">SERVO</text>
  <line x1="234" y1="337" x2="135" y2="612" stroke="#a78bfa" stroke-width="1" stroke-dasharray="3,2"/>

  <!-- ══════════════════════════════════════════════════════════════════ -->
  <!-- SiK RADIO (DRONE SIDE) -->
  <rect x="520" y="100" width="160" height="100" rx="6" fill="#0d1520" stroke="#00d4ff" stroke-width="1.5"/>
  <text x="600" y="122" fill="#00d4ff" font-size="12" font-weight="bold" text-anchor="middle">SiK RADIO</text>
  <text x="600" y="136" fill="#6b7280" font-size="9" text-anchor="middle">Hava Modemi</text>
  <text x="600" y="149" fill="#6b7280" font-size="8" text-anchor="middle">915 MHz / 433 MHz</text>
  <text x="600" y="161" fill="#00d4ff" font-size="8" text-anchor="middle">57600 baud</text>

  <!-- SiK antenna -->
  <line x1="600" y1="100" x2="600" y2="80" stroke="#00d4ff" stroke-width="2"/>
  <text x="600" y="76" fill="#00d4ff" font-size="8" text-anchor="middle">ANT</text>

  <!-- SiK ports -->
  <rect x="682" y="118" width="12" height="12" rx="2" fill="#00d4ff"/>
  <text x="698" y="128" fill="#00d4ff" font-size="7.5">TX/RX</text>
  <text x="698" y="137" fill="#6b7280" font-size="6.5">Arduino TX2/RX2</text>

  <!-- Wire: SiK radio → Arduino TX2/RX2 -->
  <line x1="234" y1="186" x2="682" y2="124" stroke="#00d4ff" stroke-width="1.2" stroke-dasharray="5,2"/>

  <!-- Wire: SiK radio → Pixhawk TELEM1 -->
  <line x1="520" y1="150" x2="470" y2="182" stroke="#00d4ff" stroke-width="1.5"/>
  <text x="492" y="172" fill="#00d4ff" font-size="7" text-anchor="middle">TELEM1</text>

  <!-- Wire Pixhawk TELEM1 port -->
  <circle cx="262" cy="182" r="3" fill="#00d4ff"/>

  <!-- ══════════════════════════════════════════════════════════════════ -->
  <!-- ESC + MOTORS -->
  <text x="440" y="395" fill="#6b7280" font-size="10" text-anchor="middle">ESC × 4</text>

  <!-- ESC blocks -->
  <rect x="310" y="400" width="36" height="36" rx="3" fill="#0d1520" stroke="#6b7280" stroke-width="1"/>
  <text x="328" y="416" fill="#6b7280" font-size="7" text-anchor="middle">ESC</text>
  <text x="328" y="427" fill="#6b7280" font-size="7" text-anchor="middle">30A</text>

  <rect x="356" y="400" width="36" height="36" rx="3" fill="#0d1520" stroke="#6b7280" stroke-width="1"/>
  <text x="374" y="416" fill="#6b7280" font-size="7" text-anchor="middle">ESC</text>
  <text x="374" y="427" fill="#6b7280" font-size="7" text-anchor="middle">30A</text>

  <rect x="402" y="400" width="36" height="36" rx="3" fill="#0d1520" stroke="#6b7280" stroke-width="1"/>
  <text x="420" y="416" fill="#6b7280" font-size="7" text-anchor="middle">ESC</text>
  <text x="420" y="427" fill="#6b7280" font-size="7" text-anchor="middle">30A</text>

  <rect x="448" y="400" width="36" height="36" rx="3" fill="#0d1520" stroke="#6b7280" stroke-width="1"/>
  <text x="466" y="416" fill="#6b7280" font-size="7" text-anchor="middle">ESC</text>
  <text x="466" y="427" fill="#6b7280" font-size="7" text-anchor="middle">30A</text>

  <!-- ESC → MAIN OUT wires -->
  <line x1="328" y1="400" x2="297" y2="310" stroke="#6b7280" stroke-width="1"/>
  <line x1="374" y1="400" x2="323" y2="310" stroke="#6b7280" stroke-width="1"/>
  <line x1="420" y1="400" x2="349" y2="310" stroke="#6b7280" stroke-width="1"/>
  <line x1="466" y1="400" x2="375" y2="310" stroke="#6b7280" stroke-width="1"/>

  <!-- ══════════════════════════════════════════════════════════════════ -->
  <!-- BATTERY -->
  <rect x="350" y="560" width="140" height="60" rx="5" fill="#0d1520" stroke="#ff4d00" stroke-width="2"/>
  <text x="420" y="585" fill="#ff4d00" font-size="12" font-weight="bold" text-anchor="middle">LiPo</text>
  <text x="420" y="600" fill="#6b7280" font-size="9" text-anchor="middle">4S 5000 mAh</text>
  <text x="420" y="612" fill="#6b7280" font-size="8" text-anchor="middle">14.8V nominal</text>

  <!-- Battery power lines -->
  <line x1="420" y1="560" x2="262" y2="156" stroke="#ff4d00" stroke-width="1.5" stroke-dasharray="5,3"/>
  <text x="340" y="370" fill="#ff4d00" font-size="8" transform="rotate(-60,340,370)">POWER</text>

  <!-- ══════════════════════════════════════════════════════════════════ -->
  <!-- GND: SiK Radio (ground side) -->
  <rect x="744" y="100" width="160" height="110" rx="6" fill="#0d1520" stroke="#00d4ff" stroke-width="1.5"/>
  <text x="824" y="122" fill="#00d4ff" font-size="12" font-weight="bold" text-anchor="middle">SiK RADIO</text>
  <text x="824" y="137" fill="#6b7280" font-size="9" text-anchor="middle">Yer Modemi</text>
  <text x="824" y="150" fill="#6b7280" font-size="8" text-anchor="middle">915 MHz / 433 MHz</text>
  <text x="824" y="163" fill="#6b7280" font-size="8" text-anchor="middle">57600 baud</text>
  <text x="824" y="176" fill="#00d4ff" font-size="8" text-anchor="middle">USB → GCS Laptop</text>

  <!-- Ground SiK antenna -->
  <line x1="824" y1="100" x2="824" y2="78" stroke="#00d4ff" stroke-width="2"/>
  <text x="824" y="74" fill="#00d4ff" font-size="8" text-anchor="middle">ANT</text>

  <!-- RF link between radios -->
  <line x1="600" y1="150" x2="744" y2="150" stroke="#00d4ff" stroke-width="1.5" stroke-dasharray="8,3"/>
  <text x="672" y="143" fill="#00d4ff" font-size="9" font-weight="bold" text-anchor="middle">RF LINK</text>
  <text x="672" y="155" fill="#00d4ff" font-size="7.5" text-anchor="middle">915 / 433 MHz</text>

  <!-- ══════════════════════════════════════════════════════════════════ -->
  <!-- GCS LAPTOP -->
  <rect x="744" y="240" width="300" height="160" rx="6" fill="#0d1520" stroke="#00ff88" stroke-width="1.5"/>
  <text x="894" y="265" fill="#00ff88" font-size="13" font-weight="bold" text-anchor="middle">GCS LAPTOP</text>
  <text x="894" y="282" fill="#6b7280" font-size="9" text-anchor="middle">X-NEU GCS — Electron App</text>

  <text x="762" y="305" fill="#6b7280" font-size="8">● MAVLink Parser</text>
  <text x="762" y="320" fill="#6b7280" font-size="8">● Leaflet Harita + Waypoint</text>
  <text x="762" y="335" fill="#6b7280" font-size="8">● HUD Telemetri Paneli</text>
  <text x="762" y="350" fill="#6b7280" font-size="8">● Mission Planner</text>
  <text x="762" y="365" fill="#6b7280" font-size="8">● Konsol + Mesaj Logu</text>
  <text x="762" y="382" fill="#00ff88" font-size="8">● Serial / UDP Bağlantısı</text>

  <!-- Wire: SiK ground → Laptop -->
  <line x1="824" y1="210" x2="894" y2="240" stroke="#00d4ff" stroke-width="1.5"/>
  <text x="856" y="228" fill="#00d4ff" font-size="8" text-anchor="middle">USB</text>

  <!-- ══════════════════════════════════════════════════════════════════ -->
  <!-- RC TRANSMITTER -->
  <rect x="744" y="430" width="200" height="100" rx="6" fill="#0d1520" stroke="#fbbf24" stroke-width="1.5"/>
  <text x="844" y="452" fill="#fbbf24" font-size="12" font-weight="bold" text-anchor="middle">RC KUMANDA</text>
  <text x="844" y="468" fill="#6b7280" font-size="9" text-anchor="middle">FrSky Taranis / Radiomaster</text>
  <text x="844" y="482" fill="#6b7280" font-size="8" text-anchor="middle">TX16S / Taranis X9D+</text>
  <text x="844" y="496" fill="#fbbf24" font-size="8" text-anchor="middle">2.4 GHz ACCST / ELRS</text>
  <text x="844" y="510" fill="#6b7280" font-size="8" text-anchor="middle">8-16 Kanal SBUS</text>

  <!-- RF link: RC Tx → RC Rx -->
  <line x1="844" y1="430" x2="485" y2="525" stroke="#fbbf24" stroke-width="1.5" stroke-dasharray="8,3"/>
  <text x="665" y="470" fill="#fbbf24" font-size="9" font-weight="bold" text-anchor="middle">RF 2.4 GHz</text>

  <!-- ══════════════════════════════════════════════════════════════════ -->
  <!-- LEGEND -->
  <rect x="44" y="680" width="680" height="60" rx="4" fill="#050508" stroke="#1a2030" stroke-width="1"/>
  <text x="60" y="696" fill="#6b7280" font-size="9" font-weight="bold">AÇIKLAMA:</text>
  <line x1="60" y1="708" x2="90" y2="708" stroke="#00d4ff" stroke-width="1.5"/>
  <text x="95" y="712" fill="#6b7280" font-size="8">MAVLink UART/USB</text>
  <line x1="60" y1="722" x2="90" y2="722" stroke="#00d4ff" stroke-width="1.5" stroke-dasharray="6,2"/>
  <text x="95" y="726" fill="#6b7280" font-size="8">RF Kablosuz</text>
  <line x1="200" y1="708" x2="230" y2="708" stroke="#ff4d00" stroke-width="1.5" stroke-dasharray="4,2"/>
  <text x="235" y="712" fill="#6b7280" font-size="8">Güç (Power)</text>
  <line x1="200" y1="722" x2="230" y2="722" stroke="#6b7280" stroke-width="1"/>
  <text x="235" y="726" fill="#6b7280" font-size="8">PWM / Sinyal</text>
  <line x1="360" y1="708" x2="390" y2="708" stroke="#22c55e" stroke-width="1.5" stroke-dasharray="3,2"/>
  <text x="395" y="712" fill="#6b7280" font-size="8">LED (D → Katot)</text>
  <circle cx="370" cy="722" r="4" fill="#6b7280" opacity="0.5"/>
  <text x="395" y="726" fill="#6b7280" font-size="8">Bağlantı noktası</text>

  <!-- ══════════════════════════════════════════════════════════════════ -->
  <!-- VERSION -->
  <text x="1050" y="770" fill="#1a2030" font-size="8" text-anchor="end">X-NEU v1.0 — 2026</text>

</svg>
